<?xml version="1.0" encoding="UTF-8"?>
<svg xmlns="http://www.w3.org/2000/svg" viewBox="0 0 64 64" role="img" aria-label="rosa">
  <defs>
    <linearGradient id="rg" x1="0" x2="1" y1="0" y2="1">
      <stop offset="0%" stop-color="#ff9db0"/>
      <stop offset="100%" stop-color="#ffd7de"/>
    </linearGradient>
    <linearGradient id="sg" x1="0" x2="0" y1="0" y2="1">
      <stop offset="0%" stop-color="#7a1530"/>
      <stop offset="100%" stop-color="#a82a4a"/>
    </linearGradient>
  </defs>
  <!-- transparent background so only the flower shows in the tab -->
  <g transform="translate(0,0)">
    <!-- stylized rose centered -->
    <g transform="translate(12,8) scale(0.85)">
      <path d="M23.6 6.2c-3.4-1.2-7.6-0.6-10.6 1.6-2.1 1.6-3.2 3.8-3.2 6 0 0.6 0.1 1.2 0.4 1.7-2.8 0.3-6.2 2.1-8 4.6-0.9 1.2-1.2 2.6-0.9 3.9 0.7 3 4.8 4.4 8.2 3.6 0.8-0.2 1.5-0.5 2.2-0.9 2.1 1.3 4.8 1.9 7.6 1.9 5.6 0 10.6-2.9 12.4-6.8 1.1-2.4 0.6-5.1-1.2-7-1.5-1.6-3.9-2.6-6.2-2.8 0.4-0.8 0.6-1.6 0.6-2.4 0-2.5-1.5-4.8-4.1-6.1z" fill="url(#rg)"/>
      <path d="M20 10c-2 1-4 2.6-4.5 4.2-0.6 1.8 0.4 3.2 2.1 3.2 1.6 0 3.8-1.4 4.6-2.7 0.9-1.5 0.7-3.2-1.2-4.7z" fill="#ff5a7a" opacity="0.95"/>
      <path d="M29 36c0.2 0.6 0.4 1.2 0.6 1.9 0.6 2.2 0.6 4.6-0.4 6.6-1.4 2.7-4.6 3.8-7 2.6-1-0.5-1.8-1.4-2.2-2.5-0.3-0.8-0.4-1.7-0.5-2.6-0.8 0.3-1.7 0.6-2.6 0.6-2.1 0-4-1.3-5-3.1-1-1.7-0.9-3.8 0.2-5.4 1.6-2.2 4.7-3.1 7.1-2.1 0.2-1.2 0.6-2.3 1.3-3.4 1.2-1.9 3.4-3.6 6.1-3.6 1.5 0 3 0.5 4.3 1.4 1.1 0.8 1.9 1.8 2.5 2.9 0.4 0.8 0.6 1.7 0.6 2.6 0 0.5-0.1 1-0.2 1.5z" fill="url(#sg)"/>
    </g>
  </g>
</svg>
